<svg width="320" height="568" viewBox="0 0 320 568" fill="none" xmlns="http://www.w3.org/2000/svg">
<g clip-path="url(#clip0_186_130)">
<rect width="320" height="568" fill="#F5F5F5"/>
<path d="M25.3274 52V36.7273H31.353C32.5114 36.7273 33.4982 36.9485 34.3136 37.391C35.1289 37.8285 35.7504 38.4375 36.1779 39.218C36.6104 39.9936 36.8267 40.8885 36.8267 41.9027C36.8267 42.9169 36.608 43.8118 36.1705 44.5874C35.733 45.3629 35.0991 45.967 34.2688 46.3995C33.4435 46.832 32.4442 47.0483 31.271 47.0483H27.4304V44.4606H30.7489C31.3704 44.4606 31.8825 44.3537 32.2852 44.1399C32.6928 43.9212 32.9961 43.6204 33.195 43.2376C33.3988 42.8498 33.5007 42.4048 33.5007 41.9027C33.5007 41.3956 33.3988 40.9531 33.195 40.5753C32.9961 40.1925 32.6928 39.8967 32.2852 39.6879C31.8775 39.4741 31.3604 39.3672 30.734 39.3672H28.5565V52H25.3274ZM40.0036 52.1939C39.5114 52.1939 39.0888 52.0199 38.7358 51.6719C38.3878 51.3189 38.2138 50.8963 38.2138 50.4041C38.2138 49.9169 38.3878 49.4993 38.7358 49.1513C39.0888 48.8033 39.5114 48.6293 40.0036 48.6293C40.4808 48.6293 40.8984 48.8033 41.2564 49.1513C41.6143 49.4993 41.7933 49.9169 41.7933 50.4041C41.7933 50.7322 41.7088 51.033 41.5398 51.3065C41.3757 51.5749 41.1594 51.7912 40.891 51.9553C40.6225 52.1143 40.3267 52.1939 40.0036 52.1939Z" fill="black"/>
<path d="M28.471 106.253V108.021C28.471 110.69 27.196 113.597 24.561 114.77L25.836 116.555C28.794 115.212 30.273 111.659 30.273 108.021V106.253H28.471ZM28.981 106.253V108.021C28.981 111.523 30.443 114.872 33.435 116.164L34.659 114.379C32.024 113.291 30.766 110.571 30.766 108.021V106.253H28.981ZM25.19 105.284V107.137H34.013V105.284H25.19ZM35.475 103.771V119.513H37.753V103.771H35.475ZM42.0697 104.451V106.253H52.0487V104.451H42.0697ZM40.3357 110.163V111.965H54.5817V110.163H40.3357ZM50.6887 104.451V105.556C50.6887 106.797 50.6887 108.395 50.2637 110.622L52.4907 110.809C52.9157 108.531 52.9157 106.831 52.9157 105.556V104.451H50.6887ZM41.8317 113.801V115.586H50.6887V119.53H52.9497V113.801H41.8317ZM66.7523 103.771V119.513H69.0303V103.771H66.7523ZM56.2973 106.134V107.919H65.6133V106.134H56.2973ZM60.9723 108.786C58.6433 108.786 56.9433 110.35 56.9433 112.543C56.9433 114.736 58.6433 116.3 60.9723 116.3C63.3013 116.3 65.0183 114.736 65.0183 112.543C65.0183 110.35 63.3013 108.786 60.9723 108.786ZM60.9723 110.622C62.0603 110.622 62.8423 111.336 62.8423 112.543C62.8423 113.75 62.0603 114.464 60.9723 114.464C59.8843 114.464 59.1023 113.75 59.1023 112.543C59.1023 111.336 59.8843 110.622 60.9723 110.622ZM59.8163 103.992V107.239H62.0943V103.992H59.8163ZM86.8526 103.771V119.513H89.0116V103.771H86.8526ZM84.8636 109.704V111.506H87.4646V109.704H84.8636ZM80.1716 105.692V106.168C80.1716 109.942 78.9136 112.594 75.3266 114.719L76.6356 116.283C81.0386 113.716 82.3306 110.129 82.3306 105.692H80.1716ZM76.1256 105.692V107.511H80.8346V105.692H76.1256ZM83.3676 104.179V118.833H85.4756V104.179H83.3676ZM101.981 103.788V115.093H104.259V103.788H101.981ZM93.7703 117.439V119.241H104.65V117.439H93.7703ZM93.7703 113.954V118.17H96.0313V113.954H93.7703ZM95.6913 104.774C93.2773 104.774 91.4073 106.44 91.4073 108.769C91.4073 111.081 93.2773 112.764 95.6913 112.764C98.1053 112.764 99.9583 111.081 99.9583 108.769C99.9583 106.44 98.1053 104.774 95.6913 104.774ZM95.6913 106.729C96.8473 106.729 97.7483 107.477 97.7483 108.769C97.7483 110.044 96.8473 110.792 95.6913 110.792C94.5183 110.792 93.6173 110.044 93.6173 108.769C93.6173 107.477 94.5183 106.729 95.6913 106.729ZM110.446 105.335V106.338C110.446 108.31 109.324 110.384 106.723 111.234L107.862 113.019C110.888 112.033 112.282 109.296 112.282 106.338V105.335H110.446ZM110.922 105.335V106.338C110.922 109.126 112.265 111.744 115.189 112.713L116.294 110.945C113.812 110.112 112.741 108.174 112.741 106.338V105.335H110.922ZM115.376 107.528V109.364H118.368V107.528H115.376ZM107.335 104.638V106.423H115.801V104.638H107.335ZM109.256 113.852V115.654H117.722V119.513H119.983V113.852H109.256ZM117.722 103.771V113.138H119.983V103.771H117.722ZM133.259 103.788V115.093H135.537V103.788H133.259ZM125.048 117.439V119.241H135.928V117.439H125.048ZM125.048 113.954V118.17H127.309V113.954H125.048ZM126.969 104.774C124.555 104.774 122.685 106.44 122.685 108.769C122.685 111.081 124.555 112.764 126.969 112.764C129.383 112.764 131.236 111.081 131.236 108.769C131.236 106.44 129.383 104.774 126.969 104.774ZM126.969 106.729C128.125 106.729 129.026 107.477 129.026 108.769C129.026 110.044 128.125 110.792 126.969 110.792C125.796 110.792 124.895 110.044 124.895 108.769C124.895 107.477 125.796 106.729 126.969 106.729ZM141.227 116.31L141.16 116.974C141.108 117.505 141.007 118.034 140.858 118.561C140.714 119.093 140.561 119.574 140.4 120.004C140.243 120.435 140.116 120.773 140.019 121.018H138.353C138.413 120.781 138.496 120.449 138.601 120.022C138.705 119.6 138.804 119.125 138.896 118.598C138.989 118.07 139.047 117.533 139.071 116.986L139.102 116.31H141.227ZM36.427 130.721V132.574H39.198V130.721H36.427ZM34.744 124.754V140.496H37.022V124.754H34.744ZM25.156 126.267V136.042H27.417V126.267H25.156ZM25.156 134.784V136.654H26.516C28.828 136.654 31.361 136.518 33.962 135.974L33.724 134.121C31.191 134.631 28.76 134.784 26.516 134.784H25.156ZM40.7777 126.063V133.662H48.2747V126.063H40.7777ZM46.0477 127.848V131.877H43.0047V127.848H46.0477ZM50.4507 124.771V136.246H52.7117V124.771H50.4507ZM52.0657 129.31V131.163H54.8027V129.31H52.0657ZM42.5627 138.439V140.241H53.2727V138.439H42.5627ZM42.5627 135.124V139.34H44.8237V135.124H42.5627ZM61.0233 125.808C58.5583 125.808 56.6713 127.423 56.6713 129.684C56.6713 131.962 58.5583 133.577 61.0233 133.577C63.5053 133.577 65.3583 131.962 65.3583 129.684C65.3583 127.423 63.5053 125.808 61.0233 125.808ZM61.0233 127.746C62.2303 127.746 63.1483 128.46 63.1483 129.684C63.1483 130.925 62.2303 131.639 61.0233 131.639C59.8163 131.639 58.8983 130.925 58.8983 129.684C58.8983 128.46 59.8163 127.746 61.0233 127.746ZM66.8373 124.754V140.547H69.0983V124.754H66.8373ZM56.2973 137.351C59.0173 137.351 62.7233 137.317 66.1403 136.637L65.9703 135.005C62.6553 135.498 58.7963 135.532 56.0253 135.532L56.2973 137.351ZM85.6626 124.771V133.543H87.9236V124.771H85.6626ZM87.2946 128.188V130.041H90.0146V128.188H87.2946ZM81.1406 125.672V126.794C81.1406 129.157 79.2196 131.163 75.3606 132.132L76.2446 133.917C80.9366 132.693 83.5546 129.854 83.5546 125.672H81.1406ZM76.1086 125.672V127.457H82.5006V125.672H76.1086ZM77.7066 134.172V140.343H87.9236V134.172H77.7066ZM85.6966 135.957V138.558H79.9336V135.957H85.6966ZM101.301 124.771V133.9H103.562V124.771H101.301ZM102.933 128.426V130.296H105.653V128.426H102.933ZM96.7793 125.655V126.777C96.7793 129.157 94.8413 131.18 90.9653 132.166L91.8833 133.9C96.5583 132.693 99.1763 129.854 99.1763 125.655H96.7793ZM91.7473 125.655V127.44H98.1393V125.655H91.7473ZM93.0563 134.563V136.348H101.301V140.513H103.562V134.563H93.0563ZM113.931 124.992C110.327 124.992 108.236 125.944 108.236 127.678C108.236 129.412 110.327 130.364 113.931 130.364C117.518 130.364 119.626 129.412 119.626 127.678C119.626 125.944 117.518 124.992 113.931 124.992ZM113.931 126.641C116.209 126.641 117.28 126.981 117.28 127.678C117.28 128.409 116.209 128.715 113.931 128.715C111.653 128.715 110.582 128.409 110.582 127.678C110.582 126.981 111.653 126.641 113.931 126.641ZM106.808 131.095V132.88H121.037V131.095H106.808ZM108.44 133.764V135.447H117.093V136.246H108.457V139.204H110.684V137.81H119.32V133.764H108.44ZM108.457 138.711V140.411H119.728V138.711H108.457ZM129.917 127.389V127.967C129.917 129.667 128.812 131.35 126.262 132.03L127.299 133.798C130.308 132.982 131.736 130.636 131.736 127.967V127.389H129.917ZM130.342 127.389V127.967C130.342 130.5 131.753 132.744 134.796 133.509L135.799 131.775C133.266 131.129 132.178 129.531 132.178 127.967V127.389H130.342ZM126.823 126.284V128.052H135.272V126.284H126.823ZM129.917 124.72V127.1H132.178V124.72H129.917ZM136.513 124.771V133.73H138.774V124.771H136.513ZM138.145 128.29V130.143H140.865V128.29H138.145ZM132.501 135.158V135.532C132.501 136.892 131.039 138.354 127.758 138.745L128.574 140.462C132.365 139.969 134.405 137.98 134.405 135.532V135.158H132.501ZM132.994 135.158V135.532C132.994 137.912 135.034 140.003 138.842 140.496L139.641 138.779C136.411 138.354 134.915 136.841 134.915 135.532V135.158H132.994ZM128.421 134.41V136.195H138.978V134.41H128.421ZM146.236 125.859C143.839 125.859 142.105 128.035 142.105 131.469C142.105 134.937 143.839 137.113 146.236 137.113C148.633 137.113 150.367 134.937 150.367 131.469C150.367 128.035 148.633 125.859 146.236 125.859ZM146.236 127.916C147.409 127.916 148.208 129.157 148.208 131.469C148.208 133.815 147.409 135.073 146.236 135.073C145.063 135.073 144.281 133.815 144.281 131.469C144.281 129.157 145.063 127.916 146.236 127.916ZM152.084 124.771V140.513H154.362V124.771H152.084ZM153.852 130.704V132.574H156.64V130.704H153.852ZM157.676 136.858V138.694H171.922V136.858H157.676ZM163.643 133.492V137.3H165.904V133.492H163.643ZM159.172 125.774V133.968H170.375V125.774H168.131V128.188H161.416V125.774H159.172ZM161.416 129.956H168.131V132.166H161.416V129.956ZM179.502 130.058V131.894H182.103V130.058H179.502ZM176.136 126.131V128.783C176.136 131.452 175.32 134.257 173.008 135.685L174.368 137.385C176.884 135.838 177.87 132.353 177.87 128.783V126.131H176.136ZM176.629 126.131V128.681C176.629 132.081 177.411 135.481 179.91 137.028L181.134 135.26C178.992 133.866 178.329 131.248 178.329 128.681V126.131H176.629ZM184.67 124.771V140.513H186.829V124.771H184.67ZM181.474 125.009V139.799H183.582V125.009H181.474ZM192.081 132.761V137.181H194.325V132.761H192.081ZM197.793 132.761V137.181H200.054V132.761H197.793ZM188.953 136.858V138.694H203.199V136.858H188.953ZM196.059 125.536C192.659 125.536 190.177 127.202 190.177 129.769C190.177 132.336 192.659 133.985 196.059 133.985C199.442 133.985 201.941 132.336 201.941 129.769C201.941 127.202 199.442 125.536 196.059 125.536ZM196.059 127.304C198.252 127.304 199.714 128.205 199.714 129.769C199.714 131.316 198.252 132.234 196.059 132.234C193.866 132.234 192.404 131.316 192.404 129.769C192.404 128.205 193.866 127.304 196.059 127.304Z" fill="black"/>
<rect x="24" y="160" width="272" height="344" rx="8" fill="url(#paint0_radial_186_130)"/>
<rect x="24.5" y="160.5" width="271" height="343" rx="7.5" stroke="#D9D9D9" stroke-opacity="0.6"/>
<g filter="url(#filter0_bd_186_130)">
<circle cx="263.471" cy="316.135" r="9.5" transform="rotate(133.12 263.471 316.135)" fill="url(#paint1_linear_186_130)"/>
<circle cx="263.471" cy="316.135" r="9.5" transform="rotate(133.12 263.471 316.135)" fill="url(#paint2_radial_186_130)" fill-opacity="0.6"/>
<circle cx="263.471" cy="316.135" r="9.5" transform="rotate(133.12 263.471 316.135)" stroke="#D9D9D9"/>
</g>
<g filter="url(#filter1_bd_186_130)">
<circle cx="220.336" cy="361.659" r="19.5" transform="rotate(133.12 220.336 361.659)" fill="url(#paint3_linear_186_130)"/>
<circle cx="220.336" cy="361.659" r="19.5" transform="rotate(133.12 220.336 361.659)" fill="url(#paint4_radial_186_130)" fill-opacity="0.6"/>
<circle cx="220.336" cy="361.659" r="19.5" transform="rotate(133.12 220.336 361.659)" stroke="#D9D9D9"/>
</g>
<g filter="url(#filter2_bd_186_130)">
<circle cx="84.6678" cy="237.251" r="12" transform="rotate(133.12 84.6678 237.251)" fill="url(#paint5_linear_186_130)"/>
<circle cx="84.6678" cy="237.251" r="12" transform="rotate(133.12 84.6678 237.251)" fill="url(#paint6_radial_186_130)" fill-opacity="0.6"/>
<circle cx="84.6678" cy="237.251" r="12" transform="rotate(133.12 84.6678 237.251)" stroke="#D9D9D9"/>
</g>
<g filter="url(#filter3_bd_186_130)">
<circle cx="244.336" cy="195.336" r="24.5" transform="rotate(133.12 244.336 195.336)" fill="url(#paint7_linear_186_130)"/>
<circle cx="244.336" cy="195.336" r="24.5" transform="rotate(133.12 244.336 195.336)" fill="url(#paint8_radial_186_130)" fill-opacity="0.6"/>
<circle cx="244.336" cy="195.336" r="24.5" transform="rotate(133.12 244.336 195.336)" stroke="#D9D9D9"/>
</g>
<path d="M58.3701 402.555H62.3779C61.8506 398.165 58.5283 395.646 54.125 395.646C49.0889 395.646 45.2393 399.219 45.2393 405.455C45.2393 411.665 49.0229 415.264 54.125 415.264C58.9766 415.264 61.9429 412.047 62.3779 408.514L58.3701 408.487C57.9878 410.557 56.353 411.744 54.1777 411.757C51.2642 411.744 49.2734 409.568 49.2734 405.455C49.2734 401.434 51.2378 399.167 54.2041 399.153C56.4321 399.167 58.0537 400.445 58.3701 402.555ZM82.6279 405.455C82.6279 399.219 78.7651 395.646 73.7158 395.646C68.627 395.646 64.7773 399.219 64.7773 405.455C64.7773 411.665 68.627 415.264 73.7158 415.264C78.7651 415.264 82.6279 411.691 82.6279 405.455ZM68.8115 405.455C68.8115 401.368 70.7495 399.167 73.7158 399.153C76.6558 399.167 78.6069 401.368 78.5938 405.455C78.6069 409.529 76.6558 411.744 73.7158 411.757C70.7495 411.744 68.8115 409.529 68.8115 405.455ZM85.4756 415H97.6572V411.73H89.4307V395.91H85.4756V415ZM116.932 405.455C116.932 399.219 113.069 395.646 108.02 395.646C102.931 395.646 99.0811 399.219 99.0811 405.455C99.0811 411.665 102.931 415.264 108.02 415.264C113.069 415.264 116.932 411.691 116.932 405.455ZM103.115 405.455C103.115 401.368 105.053 399.167 108.02 399.153C110.959 399.167 112.911 401.368 112.897 405.455C112.911 409.529 110.959 411.744 108.02 411.757C105.053 411.744 103.115 409.529 103.115 405.455ZM119.779 415H123.734V408.224H126.753L130.405 415H134.782L130.722 407.578C132.897 406.642 134.097 404.743 134.097 402.133C134.097 398.349 131.605 395.91 127.268 395.91H119.779V415ZM123.734 405.007V399.153H126.529C128.876 399.167 130.023 400.208 130.01 402.133C130.023 404.044 128.876 405.007 126.529 405.007H123.734ZM140.135 408.988V409.278H143.615V408.988C143.628 407.143 144.288 406.286 145.777 405.402C147.504 404.361 148.625 402.99 148.625 400.814C148.625 397.558 146.028 395.646 142.35 395.646C138.975 395.646 136.219 397.426 136.153 401.131H139.897C139.95 399.588 141.097 398.771 142.323 398.758C143.602 398.771 144.63 399.628 144.617 400.946C144.63 402.159 143.747 402.977 142.613 403.715C141.031 404.704 140.148 405.706 140.135 408.988ZM139.739 413.022C139.713 414.249 140.715 415.237 141.954 415.237C143.127 415.237 144.143 414.249 144.143 413.022C144.143 411.81 143.127 410.821 141.954 410.834C140.715 410.821 139.713 411.81 139.739 413.022Z" fill="#363636"/>
<path d="M49.7021 382H52.1426L54.4502 374.064H54.5498L56.8408 382H59.2812L62.7178 369.98H59.9951L57.9697 378.397H57.8701L55.6621 369.98H53.3213L51.1133 378.381H51.0137L48.9883 369.98H46.2656L49.7021 382ZM66.4033 376.787C66.4033 375.6 67.1255 374.911 68.1631 374.911C69.1924 374.911 69.79 375.567 69.79 376.688V382H72.2471V376.256C72.2471 374.139 71.0103 372.869 69.126 372.869C67.7563 372.869 66.8516 373.508 66.4365 374.562H66.3369V369.98H63.9463V382H66.4033V376.787ZM73.708 379.477C73.7163 381.261 74.9863 382.174 76.7129 382.166C78.0493 382.174 78.9126 381.585 79.3525 380.755H79.4189V382H81.7432V375.924C81.7515 373.749 79.8921 372.869 77.9248 372.869C75.5342 372.869 74.1729 374.098 74.0234 375.658H76.3643C76.4971 375.044 77.02 374.67 77.8584 374.662C78.7798 374.67 79.2944 375.102 79.3027 375.857V376.588C78.9209 376.604 77.709 376.663 77.0615 376.704C75.3267 376.812 73.7163 377.468 73.708 379.477ZM76.0654 379.41C76.0654 378.713 76.605 378.306 77.46 378.231C77.875 378.198 78.9292 378.14 79.3027 378.124V378.779C79.311 379.734 78.5308 380.464 77.4102 380.473C76.6216 380.464 76.0654 380.099 76.0654 379.41ZM88.3672 372.985H86.6738V370.827H84.2168V372.985H82.9717V374.828H84.2168V379.576C84.2002 381.328 85.4121 382.125 87.1885 382.116C87.7944 382.125 88.2344 382.075 88.5 382.033V380.091C88.2012 380.116 87.7695 380.141 87.5205 380.141C87.0225 380.124 86.6655 379.95 86.6738 379.228V374.828H88.3672V372.985ZM93.1982 369.98H90.8408L90.0107 374.712H91.7705L93.1982 369.98ZM99.9551 375.658H102.263C102.13 373.948 100.719 372.869 98.4443 372.869C96.1201 372.869 94.6343 373.948 94.6426 375.675C94.6343 377.011 95.5142 377.891 97.2324 378.231L98.7266 378.53C99.5732 378.705 99.9551 378.995 99.9551 379.46C99.9551 380.041 99.3574 380.398 98.4609 380.406C97.5562 380.398 96.9834 380.033 96.8672 379.327H94.3936C94.6011 381.087 96.0288 382.174 98.4609 382.183C100.86 382.174 102.454 380.987 102.462 379.211C102.454 377.916 101.607 377.136 99.8555 376.771L98.2451 376.438C97.3901 376.264 97.0747 375.949 97.083 375.542C97.0747 374.994 97.6807 374.621 98.4775 374.612C99.2993 374.621 99.8472 375.027 99.9551 375.658ZM107.125 369.98L111.508 377.717V382H113.998V377.717L118.381 369.98H115.575L112.819 375.16H112.703L109.931 369.98H107.125ZM121.817 382.183C124.548 382.174 126.242 380.307 126.25 377.518C126.242 374.737 124.548 372.869 121.817 372.869C119.095 372.869 117.393 374.737 117.401 377.518C117.393 380.307 119.095 382.174 121.817 382.183ZM119.892 377.518C119.892 375.932 120.547 374.745 121.834 374.745C123.087 374.745 123.751 375.932 123.743 377.518C123.751 379.095 123.087 380.265 121.834 380.273C120.547 380.265 119.892 379.095 119.892 377.518ZM133.571 378.165C133.571 379.394 132.725 380.033 131.828 380.041C130.865 380.033 130.251 379.369 130.251 378.298V372.985H127.794V378.729C127.794 380.838 129.031 382.116 130.832 382.116C132.193 382.116 133.165 381.419 133.571 380.373H133.671V382H136.028V372.985H133.571V378.165ZM137.937 382H140.394V376.87C140.386 375.766 141.208 374.994 142.32 374.994C142.661 374.994 143.134 375.052 143.366 375.127V372.936C143.15 372.886 142.835 372.853 142.586 372.853C141.573 372.853 140.735 373.442 140.411 374.546H140.311V372.985H137.937V382Z" fill="#363636"/>
<circle cx="152" cy="525" r="4" fill="#ABABAB"/>
<circle cx="168" cy="525" r="4" fill="#D9D9D9"/>
<circle cx="183.825" cy="264.827" r="47.4524" transform="rotate(-106.514 183.825 264.827)" fill="url(#paint9_linear_186_130)"/>
<g style="mix-blend-mode:overlay" filter="url(#filter4_f_186_130)">
<ellipse cx="213.999" cy="276.519" rx="22.6227" ry="18.8717" transform="rotate(-98.5917 213.999 276.519)" fill="#F5AEFE"/>
</g>
<g style="mix-blend-mode:saturation" filter="url(#filter5_f_186_130)">
<ellipse cx="187.313" cy="242.181" rx="22.6227" ry="9.79522" transform="rotate(-98.5917 187.313 242.181)" fill="#F5AEFE"/>
</g>
<g style="mix-blend-mode:color" filter="url(#filter6_f_186_130)">
<ellipse cx="209.367" cy="244.857" rx="16.237" ry="23.6767" transform="rotate(133.487 209.367 244.857)" fill="#08FBFF"/>
</g>
<g style="mix-blend-mode:luminosity" filter="url(#filter7_f_186_130)">
<ellipse cx="195.321" cy="263.262" rx="20.022" ry="12.0233" transform="rotate(-24.6828 195.321 263.262)" fill="#7CFDFF"/>
</g>
<g style="mix-blend-mode:luminosity" filter="url(#filter8_f_186_130)">
<ellipse cx="163.031" cy="234.157" rx="24.3136" ry="7.13912" transform="rotate(-98.5917 163.031 234.157)" fill="#7CFDFF"/>
</g>
<g style="mix-blend-mode:saturation" filter="url(#filter9_f_186_130)">
<ellipse cx="157.709" cy="257.702" rx="25.3264" ry="15.6936" transform="rotate(-83.9496 157.709 257.702)" fill="#EDC21E"/>
</g>
<g style="mix-blend-mode:saturation" filter="url(#filter10_f_186_130)">
<ellipse cx="161.295" cy="265.27" rx="22.2759" ry="11.3761" transform="rotate(-98.5917 161.295 265.27)" fill="#A712DF"/>
</g>
<circle cx="183.699" cy="264.77" r="47.4524" transform="rotate(-106.514 183.699 264.77)" fill="url(#paint10_radial_186_130)" fill-opacity="0.37"/>
<g filter="url(#filter11_d_186_130)">
<g filter="url(#filter12_b_186_130)">
<rect x="40" y="439" width="240" height="41" rx="20.5" fill="#A712DF" fill-opacity="0.5"/>
<rect x="40" y="439" width="240" height="41" rx="20.5" fill="url(#paint11_radial_186_130)" fill-opacity="0.6"/>
</g>
<path d="M138.476 452.42H136.351V459.974H138.476V457.085H140.518V455.342H138.476V452.42ZM126.589 456.288C126.581 458.28 128.333 459.708 130.657 459.708C132.973 459.708 134.708 458.28 134.708 456.288C134.708 454.271 132.973 452.876 130.657 452.868C128.333 452.876 126.581 454.271 126.589 456.288ZM128.449 462.198H136.368V463.161H128.482V467.361H138.908V465.701H130.557V464.688H138.476V460.571H128.449V462.198ZM128.665 456.288C128.648 455.234 129.495 454.595 130.657 454.595C131.811 454.595 132.649 455.234 132.649 456.288C132.649 457.359 131.811 458.031 130.657 458.031C129.495 458.031 128.648 457.359 128.665 456.288ZM145.25 453.482C142.934 453.482 141.257 455.566 141.265 458.861C141.257 462.182 142.934 464.257 145.25 464.257C147.557 464.257 149.226 462.182 149.234 458.861C149.226 455.566 147.557 453.482 145.25 453.482ZM143.307 458.861C143.307 456.62 144.096 455.392 145.25 455.392C146.428 455.392 147.2 456.62 147.208 458.861C147.2 461.111 146.428 462.339 145.25 462.331C144.096 462.339 143.307 461.111 143.307 458.861ZM150.977 467.527H153.102V459.874H155.327V458.114H153.102V452.42H150.977V467.527ZM159.726 452.652H157.634V457.716H161.685V458.695H155.875V460.355H169.654V458.695H163.777V457.716H167.894V452.652H165.786V453.698H159.726V452.652ZM157.468 462.696H165.885V463.51H157.485V467.428H168.375V465.834H159.56V464.971H167.977V461.152H157.468V462.696ZM159.726 456.139V455.226H165.786V456.139H159.726ZM182.669 452.42H180.544V467.527H182.669V460.09H184.678V458.347H182.669V452.42ZM170.268 463.145L171.928 464.323C174.634 461.352 175.066 458.114 175.083 453.964H170.932V455.69H173.057C172.924 458.704 172.327 460.912 170.268 463.145ZM174.535 464.124L176.211 465.303C178.884 462.016 179.258 458.272 179.266 453.964H175.581V455.69H177.266C177.149 459.011 176.585 461.601 174.535 464.124ZM187.899 462.215V462.397H190.09V462.215C190.099 461.053 190.514 460.513 191.452 459.957C192.539 459.301 193.245 458.438 193.245 457.068C193.245 455.018 191.609 453.814 189.293 453.814C187.168 453.814 185.434 454.935 185.392 457.268H187.75C187.783 456.296 188.505 455.782 189.277 455.773C190.082 455.782 190.729 456.321 190.721 457.151C190.729 457.915 190.173 458.43 189.459 458.895C188.463 459.517 187.907 460.148 187.899 462.215ZM187.65 464.755C187.633 465.527 188.264 466.149 189.044 466.149C189.783 466.149 190.422 465.527 190.422 464.755C190.422 463.991 189.783 463.369 189.044 463.377C188.264 463.369 187.633 463.991 187.65 464.755Z" fill="#363636"/>
</g>
</g>
<defs>
<filter id="filter0_bd_186_130" x="173.471" y="226.135" width="180" height="180" filterUnits="userSpaceOnUse" color-interpolation-filters="sRGB">
<feFlood flood-opacity="0" result="BackgroundImageFix"/>
<feGaussianBlur in="BackgroundImageFix" stdDeviation="40"/>
<feComposite in2="SourceAlpha" operator="in" result="effect1_backgroundBlur_186_130"/>
<feColorMatrix in="SourceAlpha" type="matrix" values="0 0 0 0 0 0 0 0 0 0 0 0 0 0 0 0 0 0 127 0" result="hardAlpha"/>
<feOffset dx="-10" dy="-10"/>
<feGaussianBlur stdDeviation="20"/>
<feComposite in2="hardAlpha" operator="out"/>
<feColorMatrix type="matrix" values="0 0 0 0 0 0 0 0 0 0 0 0 0 0 0 0 0 0 0.25 0"/>
<feBlend mode="normal" in2="effect1_backgroundBlur_186_130" result="effect2_dropShadow_186_130"/>
<feBlend mode="normal" in="SourceGraphic" in2="effect2_dropShadow_186_130" result="shape"/>
</filter>
<filter id="filter1_bd_186_130" x="120.336" y="261.659" width="200" height="200" filterUnits="userSpaceOnUse" color-interpolation-filters="sRGB">
<feFlood flood-opacity="0" result="BackgroundImageFix"/>
<feGaussianBlur in="BackgroundImageFix" stdDeviation="40"/>
<feComposite in2="SourceAlpha" operator="in" result="effect1_backgroundBlur_186_130"/>
<feColorMatrix in="SourceAlpha" type="matrix" values="0 0 0 0 0 0 0 0 0 0 0 0 0 0 0 0 0 0 127 0" result="hardAlpha"/>
<feOffset dx="-5" dy="-5"/>
<feGaussianBlur stdDeviation="15"/>
<feComposite in2="hardAlpha" operator="out"/>
<feColorMatrix type="matrix" values="0 0 0 0 0 0 0 0 0 0 0 0 0 0 0 0 0 0 0.25 0"/>
<feBlend mode="normal" in2="effect1_backgroundBlur_186_130" result="effect2_dropShadow_186_130"/>
<feBlend mode="normal" in="SourceGraphic" in2="effect2_dropShadow_186_130" result="shape"/>
</filter>
<filter id="filter2_bd_186_130" x="-7.83203" y="144.75" width="185" height="185" filterUnits="userSpaceOnUse" color-interpolation-filters="sRGB">
<feFlood flood-opacity="0" result="BackgroundImageFix"/>
<feGaussianBlur in="BackgroundImageFix" stdDeviation="40"/>
<feComposite in2="SourceAlpha" operator="in" result="effect1_backgroundBlur_186_130"/>
<feColorMatrix in="SourceAlpha" type="matrix" values="0 0 0 0 0 0 0 0 0 0 0 0 0 0 0 0 0 0 127 0" result="hardAlpha"/>
<feOffset dx="-10" dy="-10"/>
<feGaussianBlur stdDeviation="20"/>
<feComposite in2="hardAlpha" operator="out"/>
<feColorMatrix type="matrix" values="0 0 0 0 0 0 0 0 0 0 0 0 0 0 0 0 0 0 0.25 0"/>
<feBlend mode="normal" in2="effect1_backgroundBlur_186_130" result="effect2_dropShadow_186_130"/>
<feBlend mode="normal" in="SourceGraphic" in2="effect2_dropShadow_186_130" result="shape"/>
</filter>
<filter id="filter3_bd_186_130" x="128.999" y="79.9999" width="230.673" height="230.673" filterUnits="userSpaceOnUse" color-interpolation-filters="sRGB">
<feFlood flood-opacity="0" result="BackgroundImageFix"/>
<feGaussianBlur in="BackgroundImageFix" stdDeviation="40"/>
<feComposite in2="SourceAlpha" operator="in" result="effect1_backgroundBlur_186_130"/>
<feColorMatrix in="SourceAlpha" type="matrix" values="0 0 0 0 0 0 0 0 0 0 0 0 0 0 0 0 0 0 127 0" result="hardAlpha"/>
<feOffset dx="10" dy="-10"/>
<feGaussianBlur stdDeviation="20"/>
<feComposite in2="hardAlpha" operator="out"/>
<feColorMatrix type="matrix" values="0 0 0 0 0 0 0 0 0 0 0 0 0 0 0 0 0 0 0.25 0"/>
<feBlend mode="normal" in2="effect1_backgroundBlur_186_130" result="effect2_dropShadow_186_130"/>
<feBlend mode="normal" in="SourceGraphic" in2="effect2_dropShadow_186_130" result="shape"/>
</filter>
<filter id="filter4_f_186_130" x="115.032" y="173.971" width="197.934" height="205.096" filterUnits="userSpaceOnUse" color-interpolation-filters="sRGB">
<feFlood flood-opacity="0" result="BackgroundImageFix"/>
<feBlend mode="normal" in="SourceGraphic" in2="BackgroundImageFix" result="shape"/>
<feGaussianBlur stdDeviation="40" result="effect1_foregroundBlur_186_130"/>
</filter>
<filter id="filter5_f_186_130" x="57.0527" y="99.7635" width="260.521" height="284.835" filterUnits="userSpaceOnUse" color-interpolation-filters="sRGB">
<feFlood flood-opacity="0" result="BackgroundImageFix"/>
<feBlend mode="normal" in="SourceGraphic" in2="BackgroundImageFix" result="shape"/>
<feGaussianBlur stdDeviation="60" result="effect1_foregroundBlur_186_130"/>
</filter>
<filter id="filter6_f_186_130" x="128.872" y="164.749" width="160.99" height="160.216" filterUnits="userSpaceOnUse" color-interpolation-filters="sRGB">
<feFlood flood-opacity="0" result="BackgroundImageFix"/>
<feBlend mode="normal" in="SourceGraphic" in2="BackgroundImageFix" result="shape"/>
<feGaussianBlur stdDeviation="30" result="effect1_foregroundBlur_186_130"/>
</filter>
<filter id="filter7_f_186_130" x="56.4434" y="129.504" width="277.755" height="267.516" filterUnits="userSpaceOnUse" color-interpolation-filters="sRGB">
<feFlood flood-opacity="0" result="BackgroundImageFix"/>
<feBlend mode="normal" in="SourceGraphic" in2="BackgroundImageFix" result="shape"/>
<feGaussianBlur stdDeviation="60" result="effect1_foregroundBlur_186_130"/>
</filter>
<filter id="filter8_f_186_130" x="35.0908" y="90.0919" width="255.881" height="288.13" filterUnits="userSpaceOnUse" color-interpolation-filters="sRGB">
<feFlood flood-opacity="0" result="BackgroundImageFix"/>
<feBlend mode="normal" in="SourceGraphic" in2="BackgroundImageFix" result="shape"/>
<feGaussianBlur stdDeviation="60" result="effect1_foregroundBlur_186_130"/>
</filter>
<filter id="filter9_f_186_130" x="71.874" y="162.461" width="171.671" height="190.481" filterUnits="userSpaceOnUse" color-interpolation-filters="sRGB">
<feFlood flood-opacity="0" result="BackgroundImageFix"/>
<feBlend mode="normal" in="SourceGraphic" in2="BackgroundImageFix" result="shape"/>
<feGaussianBlur stdDeviation="35" result="effect1_foregroundBlur_186_130"/>
</filter>
<filter id="filter10_f_186_130" x="29.5615" y="123.178" width="263.467" height="284.185" filterUnits="userSpaceOnUse" color-interpolation-filters="sRGB">
<feFlood flood-opacity="0" result="BackgroundImageFix"/>
<feBlend mode="normal" in="SourceGraphic" in2="BackgroundImageFix" result="shape"/>
<feGaussianBlur stdDeviation="60" result="effect1_foregroundBlur_186_130"/>
</filter>
<filter id="filter11_d_186_130" x="36" y="439" width="248" height="49" filterUnits="userSpaceOnUse" color-interpolation-filters="sRGB">
<feFlood flood-opacity="0" result="BackgroundImageFix"/>
<feColorMatrix in="SourceAlpha" type="matrix" values="0 0 0 0 0 0 0 0 0 0 0 0 0 0 0 0 0 0 127 0" result="hardAlpha"/>
<feOffset dy="4"/>
<feGaussianBlur stdDeviation="2"/>
<feComposite in2="hardAlpha" operator="out"/>
<feColorMatrix type="matrix" values="0 0 0 0 0 0 0 0 0 0 0 0 0 0 0 0 0 0 0.2 0"/>
<feBlend mode="normal" in2="BackgroundImageFix" result="effect1_dropShadow_186_130"/>
<feBlend mode="normal" in="SourceGraphic" in2="effect1_dropShadow_186_130" result="shape"/>
</filter>
<filter id="filter12_b_186_130" x="36" y="435" width="248" height="49" filterUnits="userSpaceOnUse" color-interpolation-filters="sRGB">
<feFlood flood-opacity="0" result="BackgroundImageFix"/>
<feGaussianBlur in="BackgroundImageFix" stdDeviation="2"/>
<feComposite in2="SourceAlpha" operator="in" result="effect1_backgroundBlur_186_130"/>
<feBlend mode="normal" in="SourceGraphic" in2="effect1_backgroundBlur_186_130" result="shape"/>
</filter>
<radialGradient id="paint0_radial_186_130" cx="0" cy="0" r="1" gradientUnits="userSpaceOnUse" gradientTransform="translate(97.2308 221.275) rotate(57.9007) scale(333.745 276.122)">
<stop stop-color="white" stop-opacity="0.7"/>
<stop offset="1" stop-color="white" stop-opacity="0.2"/>
</radialGradient>
<linearGradient id="paint1_linear_186_130" x1="256.091" y1="309.515" x2="269.291" y2="324.315" gradientUnits="userSpaceOnUse">
<stop stop-color="#A712DF" stop-opacity="0.7"/>
<stop offset="1" stop-color="#FFB800" stop-opacity="0.4"/>
</linearGradient>
<radialGradient id="paint2_radial_186_130" cx="0" cy="0" r="1" gradientUnits="userSpaceOnUse" gradientTransform="translate(262.951 310.915) rotate(58.0032) scale(14.0789 9.80073)">
<stop stop-color="white" stop-opacity="0.7"/>
<stop offset="1" stop-color="white" stop-opacity="0.1"/>
</radialGradient>
<linearGradient id="paint3_linear_186_130" x1="205.576" y1="348.419" x2="231.976" y2="378.019" gradientUnits="userSpaceOnUse">
<stop stop-color="#A712DF" stop-opacity="0.7"/>
<stop offset="1" stop-color="#FFB800" stop-opacity="0.4"/>
</linearGradient>
<radialGradient id="paint4_radial_186_130" cx="0" cy="0" r="1" gradientUnits="userSpaceOnUse" gradientTransform="translate(219.296 351.219) rotate(58.0032) scale(28.1578 19.6015)">
<stop stop-color="white" stop-opacity="0.7"/>
<stop offset="1" stop-color="white" stop-opacity="0.1"/>
</radialGradient>
<linearGradient id="paint5_linear_186_130" x1="75.4428" y1="228.976" x2="91.9428" y2="247.476" gradientUnits="userSpaceOnUse">
<stop stop-color="#A712DF" stop-opacity="0.7"/>
<stop offset="1" stop-color="#FFB800" stop-opacity="0.4"/>
</linearGradient>
<radialGradient id="paint6_radial_186_130" cx="0" cy="0" r="1" gradientUnits="userSpaceOnUse" gradientTransform="translate(84.0178 230.726) rotate(58.0032) scale(17.5986 12.2509)">
<stop stop-color="white" stop-opacity="0.7"/>
<stop offset="1" stop-color="white" stop-opacity="0.1"/>
</radialGradient>
<linearGradient id="paint7_linear_186_130" x1="225.886" y1="178.786" x2="258.886" y2="215.786" gradientUnits="userSpaceOnUse">
<stop stop-color="#A712DF" stop-opacity="0.7"/>
<stop offset="1" stop-color="#FFB800" stop-opacity="0.4"/>
</linearGradient>
<radialGradient id="paint8_radial_186_130" cx="0" cy="0" r="1" gradientUnits="userSpaceOnUse" gradientTransform="translate(243.036 182.286) rotate(58.0032) scale(35.1972 24.5018)">
<stop stop-color="white" stop-opacity="0.7"/>
<stop offset="1" stop-color="white" stop-opacity="0.1"/>
</radialGradient>
<linearGradient id="paint9_linear_186_130" x1="153.456" y1="229.332" x2="214.195" y2="300.321" gradientUnits="userSpaceOnUse">
<stop stop-color="#A300F0"/>
<stop offset="1" stop-color="#F0C400"/>
</linearGradient>
<radialGradient id="paint10_radial_186_130" cx="0" cy="0" r="1" gradientUnits="userSpaceOnUse" gradientTransform="translate(213.384 257.703) rotate(158.861) scale(73.5885)">
<stop stop-color="white"/>
<stop offset="1" stop-color="white" stop-opacity="0.2"/>
</radialGradient>
<radialGradient id="paint11_radial_186_130" cx="0" cy="0" r="1" gradientUnits="userSpaceOnUse" gradientTransform="translate(91.9512 454.459) rotate(7.64815) scale(174.233 68.3935)">
<stop offset="0.12001" stop-color="white" stop-opacity="0.8"/>
<stop offset="1" stop-color="white" stop-opacity="0.1"/>
</radialGradient>
<clipPath id="clip0_186_130">
<rect width="320" height="568" fill="white"/>
</clipPath>
</defs>
</svg>
